<svg xmlns="http://www.w3.org/2000/svg" viewBox="0 0 720 460" width="720" height="460" role="img" aria-label="Illustration of a laptop learning online technical skills">
  <title>Online technical training</title>
  <defs>
    <linearGradient id="screen" x1="0" y1="0" x2="1" y2="1">
      <stop offset="0%" stop-color="#1e1b4b"/>
      <stop offset="100%" stop-color="#0f172a"/>
    </linearGradient>
    <linearGradient id="accent" x1="0" y1="0" x2="1" y2="1">
      <stop offset="0%" stop-color="#6366f1"/>
      <stop offset="100%" stop-color="#0ea5e9"/>
    </linearGradient>
  </defs>

  <rect x="0" y="0" width="720" height="460" rx="24" fill="#f8fafc"/>

  <circle cx="612" cy="84" r="46" fill="#e0e7ff"/>
  <circle cx="96" cy="392" r="34" fill="#e0f2fe"/>

  <rect x="150" y="70" width="420" height="262" rx="18" fill="url(#screen)"/>
  <rect x="168" y="88" width="384" height="226" rx="10" fill="#0f172a"/>

  <circle cx="196" cy="116" r="7" fill="#f87171"/>
  <circle cx="218" cy="116" r="7" fill="#fbbf24"/>
  <circle cx="240" cy="116" r="7" fill="#34d399"/>

  <rect x="190" y="146" width="150" height="12" rx="6" fill="url(#accent)"/>
  <rect x="190" y="172" width="240" height="9" rx="4.5" fill="#334155"/>
  <rect x="190" y="190" width="200" height="9" rx="4.5" fill="#334155"/>

  <rect x="190" y="218" width="104" height="62" rx="10" fill="#1e293b"/>
  <rect x="310" y="218" width="104" height="62" rx="10" fill="#1e293b"/>
  <rect x="430" y="218" width="104" height="62" rx="10" fill="#1e293b"/>

  <rect x="206" y="236" width="44" height="8" rx="4" fill="#38bdf8"/>
  <rect x="326" y="236" width="36" height="8" rx="4" fill="#a78bfa"/>
  <rect x="446" y="236" width="52" height="8" rx="4" fill="#34d399"/>

  <rect x="206" y="254" width="72" height="7" rx="3.5" fill="#334155"/>
  <rect x="326" y="254" width="72" height="7" rx="3.5" fill="#334155"/>
  <rect x="446" y="254" width="72" height="7" rx="3.5" fill="#334155"/>

  <rect x="120" y="332" width="480" height="18" rx="9" fill="#cbd5e1"/>
  <rect x="300" y="350" width="120" height="14" rx="7" fill="#94a3b8"/>

  <g>
    <rect x="536" y="150" width="148" height="86" rx="14" fill="#ffffff" stroke="#e2e8f0"/>
    <circle cx="566" cy="182" r="16" fill="#e0e7ff"/>
    <path d="M558 182 l6 6 12 -12" fill="none" stroke="#4f46e5" stroke-width="3.5" stroke-linecap="round" stroke-linejoin="round"/>
    <rect x="592" y="172" width="74" height="9" rx="4.5" fill="#cbd5e1"/>
    <rect x="592" y="190" width="52" height="8" rx="4" fill="#e2e8f0"/>
    <rect x="556" y="210" width="110" height="8" rx="4" fill="#e0e7ff"/>
  </g>

  <g>
    <rect x="40" y="140" width="150" height="80" rx="14" fill="#ffffff" stroke="#e2e8f0"/>
    <circle cx="70" cy="172" r="16" fill="#dcfce7"/>
    <rect x="56" y="166" width="28" height="12" rx="4" fill="#16a34a"/>
    <rect x="94" y="166" width="76" height="9" rx="4.5" fill="#cbd5e1"/>
    <rect x="94" y="184" width="52" height="8" rx="4" fill="#e2e8f0"/>
    <rect x="60" y="198" width="110" height="8" rx="4" fill="#e0f2fe"/>
  </g>
</svg>
